# xmcd
#
# Track frame offsets:
#	150
#	7847
#	15537
#	23055
#	31728
#	40317
#	48850
#	58066
#	65401
#	74492
#	85505
#
# Disc length: 1239 seconds
#
# Revision: 0
# Processed by: cddbd v1.5.2PL0 Copyright (c) Steve Scherf et al.
# Submitted via: EasyCDDAExtractor 9.0.0.1
#
DISCID=7c04d50b
DTITLE=Jacek Wietrzykowski - Jacek Wietrzykowski - Demo
DYEAR=2005
DGENRE=Country
TTITLE0=I cross my heart
TTITLE1=Chattahoochie
TTITLE2=I walk the line
TTITLE3=Waltz
TTITLE4=Cant help falling on love with you
TTITLE5=Teddy Bear
TTITLE6=You were always on my mind
TTITLE7=ChampsElyses
TTITLE8=Last Waltz
TTITLE9=Have I told you lately
TTITLE10=Everybody loves somebody
EXTD=
EXTT0=
EXTT1=
EXTT2=
EXTT3=
EXTT4=
EXTT5=
EXTT6=
EXTT7=
EXTT8=
EXTT9=
EXTT10=
PLAYORDER=
